<?xml version="1.0" encoding="utf-8"?>
<!-- Generator: Adobe Illustrator 25.2.0, SVG Export Plug-In . SVG Version: 6.00 Build 0)  -->
<svg version="1.1" id="Calque_1" xmlns="http://www.w3.org/2000/svg" xmlns:xlink="http://www.w3.org/1999/xlink" x="0px" y="0px"
	 viewBox="0 0 32 32" style="enable-background:new 0 0 32 32;" xml:space="preserve">
<style type="text/css">
	.st0{fill:#D0DDE6;}
	.st1{fill:#B9CBD5;}
	.st2{fill:#F2CCB3;}
	.st3{fill:#FFFFFF;}
	.st4{fill:#E8A882;}
	.st5{fill:#09B1C0;}
	.st6{fill:none;stroke:#FFFFFF;stroke-linecap:round;stroke-miterlimit:10;}
	.st7{fill:none;stroke:#787678;stroke-width:3;stroke-linecap:round;stroke-miterlimit:10;}
	.st8{fill:none;stroke:#787678;stroke-width:3;stroke-linecap:round;stroke-miterlimit:10;stroke-dasharray:0,4.9979;}
	.st9{clip-path:url(#SVGID_2_);}
	.st10{fill:none;stroke:#787678;stroke-width:3;stroke-linecap:round;stroke-miterlimit:10;stroke-dasharray:0,5.012;}
	.st11{fill:none;stroke:#787678;stroke-width:3;stroke-linecap:round;stroke-miterlimit:10;stroke-dasharray:0,5.1074;}
	.st12{fill:none;stroke:#787678;stroke-width:3;stroke-linecap:round;stroke-miterlimit:10;stroke-dasharray:0,4.8127;}
	.st13{fill:none;stroke:#787678;stroke-width:3;stroke-linecap:round;stroke-miterlimit:10;stroke-dasharray:0,4.9934;}
	.st14{fill:none;stroke:#787678;stroke-width:3;stroke-linecap:round;stroke-miterlimit:10;stroke-dasharray:0,5.0164;}
	.st15{clip-path:url(#SVGID_5_);}
	.st16{fill:url(#SVGID_6_);}
	.st17{fill:#787678;}
	.st18{clip-path:url(#SVGID_7_);}
</style>
<g>
	<g>
		<g>
			<path class="st4" d="M14.54,18.65c0.29-0.45,0.53-0.81,0.76-1.17c0.55-0.84,1.12-1.68,1.66-2.54c0.14-0.21,0.28-0.3,0.54-0.3
				c0.63,0.02,1.26,0.01,1.89,0.01c1.75-0.01,3.21-1.39,3.32-3.14c0.1-1.68-1.17-3.21-2.86-3.45c-0.21-0.03-0.42-0.05-0.63-0.05
				c-2.26,0-4.51,0-6.77-0.01c-0.3,0-0.47,0.11-0.62,0.35c-0.64,1-1.29,1.98-1.94,2.97c-0.04,0.07-0.1,0.13-0.19,0.24
				C8.34,9.07,7.01,6.6,5.65,4.07c0.25,0,0.42,0,0.6,0c4.38,0,8.75,0,13.13,0c3.82,0,6.96,2.89,7.27,6.69
				c0.31,3.83-2.4,7.25-6.2,7.81c-0.38,0.06-0.76,0.08-1.14,0.08c-1.41,0.01-2.81,0-4.22,0C14.95,18.65,14.8,18.65,14.54,18.65z"/>
			<path class="st5" d="M9.76,22.37c0.58-0.12,1.08-0.24,1.59-0.32c1.63-0.24,3.19,0.11,4.7,0.69c0.55,0.21,1.09,0.46,1.65,0.65
				c1.87,0.66,3.57,0.58,4.92-1.19c0.09,0.13,0.16,0.22,0.21,0.32c0.56,1.04,1.11,2.09,1.69,3.12c0.13,0.24,0.04,0.35-0.13,0.48
				c-1.82,1.46-3.9,1.92-6.15,1.5c-1.06-0.2-2.1-0.55-3.09-0.97c-2.38-1-4.5-0.69-6.39,1.07c-0.06,0.06-0.13,0.1-0.23,0.18
				c-0.07-0.12-0.14-0.22-0.2-0.32C7.34,25.81,6.38,24,5.4,22.2c-0.12-0.22-0.09-0.37,0.04-0.57c2.48-3.77,4.96-7.54,7.44-11.31
				c0.1-0.15,0.32-0.3,0.48-0.31c1.41-0.02,2.81-0.02,4.22-0.01c0.06,0,0.12,0.02,0.26,0.04C15.14,14.17,12.47,18.25,9.76,22.37z"/>
		</g>
	</g>
</g>
</svg>
